<svg width="17" height="17" viewBox="0 0 17 17" fill="none" xmlns="http://www.w3.org/2000/svg">
  <path d="M6.375 4.95825L9.20833 4.95825" stroke="currentColor" stroke-width="1.41667" stroke-linecap="round"/>
  <path d="M6.375 10.625L8.5 10.625" stroke="currentColor" stroke-width="1.41667" stroke-linecap="round"/>
  <path d="M6.375 7.79175L10.625 7.79175" stroke="currentColor" stroke-width="1.41667" stroke-linecap="round"/>
  <path d="M13.4584 7.79167V6.375C13.4584 4.37153 13.4584 3.3698 12.836 2.7474C12.2136 2.125 11.2119 2.125 9.20841 2.125H7.79175C5.78828 2.125 4.78654 2.125 4.16415 2.7474C3.54175 3.3698 3.54175 4.37153 3.54175 6.375V10.625C3.54175 12.6285 3.54175 13.6302 4.16415 14.2526C4.78654 14.875 5.78828 14.875 7.79175 14.875H8.50008" stroke="currentColor" stroke-width="1.41667"/>
  <circle cx="12.3958" cy="12.3958" r="1.77083" stroke="currentColor" stroke-width="1.41667"/>
  <path d="M14.875 14.875L13.8125 13.8125" stroke="currentColor" stroke-width="1.41667" stroke-linecap="round"/>
</svg>
