<svg width="17" height="17" viewBox="0 0 17 17" fill="none" xmlns="http://www.w3.org/2000/svg">
  <path d="M9.32995 2.125H6.37508C5.03944 2.125 4.37161 2.125 3.95668 2.53993C3.54175 2.95486 3.54175 3.62269 3.54175 4.95833V12.0417C3.54175 13.3773 3.54175 14.0451 3.95668 14.4601C4.37161 14.875 5.03944 14.875 6.37508 14.875H10.6251C11.9607 14.875 12.6286 14.875 13.0435 14.4601C13.4584 14.0451 13.4584 13.3773 13.4584 12.0417V6.25347C13.4584 5.96394 13.4584 5.81917 13.4045 5.689C13.3506 5.55883 13.2482 5.45646 13.0435 5.25173L10.3317 2.53993C10.127 2.3352 10.0246 2.23284 9.89441 2.17892C9.76424 2.125 9.61948 2.125 9.32995 2.125Z" 
        stroke="currentColor" stroke-width="1.41667"/>
  <path d="M6.375 9.20825L10.625 9.20825" 
        stroke="currentColor" stroke-width="1.41667" stroke-linecap="round"/>
  <path d="M6.375 12.0417L9.20833 12.0417" 
        stroke="currentColor" stroke-width="1.41667" stroke-linecap="round"/>
  <path d="M9.20825 2.125V4.95833C9.20825 5.62616 9.20825 5.96007 9.41572 6.16753C9.62318 6.375 9.9571 6.375 10.6249 6.375H13.4583" 
        stroke="currentColor" stroke-width="1.41667"/>
</svg>
