<svg width="36" height="37" viewBox="0 0 36 37" fill="none" xmlns="http://www.w3.org/2000/svg">
<circle cx="18" cy="18.5" r="17.5" fill="#059669" stroke="white"/>
<path d="M18 10C19.1848 10 20.2875 10.2253 21.3135 10.6719C22.3504 11.1233 23.248 11.7291 24.0098 12.4902C24.7714 13.2513 25.3777 14.1489 25.8291 15.1865C26.2757 16.2131 26.5006 17.316 26.5 18.5C26.4993 19.6843 26.2745 20.7876 25.8291 21.8145C25.3792 22.8515 24.7724 23.748 24.0098 24.5088C23.2464 25.2703 22.3493 25.878 21.3135 26.3301C20.2894 26.777 19.1868 27.0012 18.001 27H18C16.0099 27 14.2609 26.3989 12.7344 25.1953C11.2048 23.9893 10.2174 22.4563 9.76074 20.582L9.75781 20.5713L9.74707 20.5068C9.7431 20.4457 9.76231 20.3915 9.81543 20.3252C9.89393 20.2274 9.99618 20.1661 10.1592 20.1465H10.1621C10.3225 20.1264 10.4486 20.1556 10.5625 20.2256C10.6401 20.2734 10.7049 20.3395 10.7539 20.4385L10.7979 20.5488C11.2288 22.1482 12.1157 23.4606 13.4473 24.4727C14.7851 25.4894 16.3084 26 18 26C20.0803 26 21.8624 25.2697 23.3164 23.8164C24.7705 22.363 25.5007 20.581 25.5 18.5C25.4993 16.4192 24.7692 14.6373 23.3164 13.1846C21.8637 11.7318 20.0814 11.0014 18 11C16.7694 11 15.6134 11.286 14.54 11.8584C13.4724 12.4278 12.5734 13.2124 11.8467 14.2051L11.2646 15H14C14.1571 15 14.2656 15.0478 14.3594 15.1416C14.4531 15.2353 14.5004 15.3433 14.5 15.499C14.4996 15.6558 14.4517 15.7653 14.3574 15.8604C14.265 15.9534 14.1578 16.0007 14.002 16H10C9.84307 16 9.73538 15.9523 9.64258 15.8594C9.57221 15.7888 9.52685 15.7096 9.50879 15.6084L9.5 15.499V11.5C9.5 11.3431 9.54766 11.2354 9.64062 11.1426C9.73479 11.0487 9.84403 11.0004 10.001 11C10.1562 10.9996 10.2646 11.0469 10.3594 11.1416C10.4541 11.2363 10.5007 11.3443 10.5 11.498V14.2793L11.3906 13.1611C12.1935 12.1536 13.1717 11.3767 14.3281 10.8262C15.4858 10.2751 16.708 10 18 10ZM18.001 14C18.1562 13.9996 18.2646 14.0469 18.3594 14.1416C18.4541 14.2363 18.5007 14.3443 18.5 14.498V18.3066L21.1465 20.9531C21.2269 21.0335 21.2754 21.1356 21.2754 21.2998C21.2754 21.4641 21.2269 21.5661 21.1465 21.6465C21.0661 21.7269 20.9641 21.7754 20.7998 21.7754C20.6356 21.7754 20.5335 21.7269 20.4531 21.6465L17.6533 18.8467C17.5985 18.7919 17.5626 18.7354 17.5391 18.6768C17.5128 18.6112 17.5 18.5447 17.5 18.4746V14.5C17.5 14.3431 17.5477 14.2354 17.6406 14.1426C17.7348 14.0487 17.844 14.0004 18.001 14Z" fill="#065F46" stroke="white"/>
</svg>
