<svg width="27" height="27" viewBox="0 0 27 27" fill="none" xmlns="http://www.w3.org/2000/svg">
  <path d="M15.4451 4.33545H10.5677C7.11885 4.33545 5.39443 4.33545 4.32301 5.42388C3.25159 6.5123 3.25159 8.2641 3.25159 11.7677V14.2451C3.25159 17.7487 3.25159 19.5005 4.32301 20.5889C5.39443 21.6774 7.11885 21.6774 10.5677 21.6774H15.4451C18.894 21.6774 20.6184 21.6774 21.6898 20.5889C22.7612 19.5005 22.7612 17.7487 22.7612 14.2451V11.7677C22.7612 8.2641 22.7612 6.5123 21.6898 5.42388C20.6184 4.33545 18.894 4.33545 15.4451 4.33545Z" 
        stroke="currentColor" stroke-width="2.16774"/>
  <path d="M7.58704 8.67114H10.8386" 
        stroke="currentColor" stroke-width="2.16774" stroke-linecap="round"/>
  <path d="M16.2583 15.1741V15.1741C16.2583 14.1522 16.2583 13.6412 16.5757 13.3238C16.8932 13.0063 17.4041 13.0063 18.426 13.0063H20.5937C21.6156 13.0063 22.1266 13.0063 22.444 13.3238C22.7615 13.6412 22.7615 14.1522 22.7615 15.1741V15.1741C22.7615 16.1959 22.7615 16.7069 22.444 17.0243C22.1266 17.3418 21.6156 17.3418 20.5937 17.3418H18.426C17.4041 17.3418 16.8932 17.3418 16.5757 17.0243C16.2583 16.7069 16.2583 16.1959 16.2583 15.1741Z" 
        stroke="currentColor" stroke-width="2.16774"/>
</svg>
